<svg xmlns="http://www.w3.org/2000/svg" width="187" height="39.082" viewBox="0 0 187 39.082">
  <g id="logo" transform="translate(-96.428 -139.59)">
    <path id="パス_1" data-name="パス 1" d="M106.082,148.482V147.3c0-2.753-1.652-3.388-2.668-3.388-2.329,0-2.667,1.779-2.667,3.388v15.666c0,1.4.593,2.964,2.624,2.964.847,0,2.71-.339,2.71-3.175V161.4H110.4v1.736a6.969,6.969,0,0,1-6.859,7.113c-4.445,0-7.113-2.71-7.113-6.945V146.45a6.743,6.743,0,0,1,7.028-6.86,6.823,6.823,0,0,1,5,2.075,7.246,7.246,0,0,1,1.947,5.505v1.312Z" fill="#fff"/>
    <path id="パス_2" data-name="パス 2" d="M119.237,139.794l6.732,30.148h-4.318l-1.27-6.479H114.5l-1.27,6.479h-4.319l6.733-30.148ZM115.257,159.4h4.319l-2.117-10.924h-.085Z" transform="translate(3.063 0.05)" fill="#fff"/>
    <path id="パス_3" data-name="パス 3" d="M137.18,139.794v4.065h-8.554V153h7.453v4.065h-7.453v12.872h-4.318V139.794Z" transform="translate(6.844 0.05)" fill="#fff"/>
    <path id="パス_4" data-name="パス 4" d="M149.76,139.794v4.065h-8.554v8.85h7.453v4.064h-7.453v8.849h8.554v4.319H136.888V139.794Z" transform="translate(9.932 0.05)" fill="#fff"/>
    <path id="パス_5" data-name="パス 5" d="M153.582,160.532v4.319h-4.318v-4.319Z" transform="translate(12.971 5.141)" fill="#fff"/>
    <path id="パス_6" data-name="パス 6" d="M162.27,139.794c2.371,0,5.166.848,6.521,3.43a9.029,9.029,0,0,1,.973,4.743c0,3.515-.635,4.657-2.963,6.139a4.682,4.682,0,0,1,2.5,2.71,11.585,11.585,0,0,1,.466,4.277c0,2.921-.38,4.53-1.311,5.927-1.4,2.117-4.023,2.922-6.564,2.922h-6.1l.042-30.148Zm-2.16,12.365H161.8c2.5,0,3.9-.72,3.9-4.235,0-1.694-.254-4.065-3.811-4.065H160.11Zm0,13.464h1.652c3.642,0,3.938-1.862,3.938-5.08,0-3.6-.889-4.573-3.938-4.573H160.11Z" transform="translate(14.573 0.05)" fill="#fff"/>
    <path id="パス_7" data-name="パス 7" d="M180.106,151.132a3.6,3.6,0,0,0-1.311-.254,4.3,4.3,0,0,0-4.4,4.531v12.872h-4.319V146.814h4.319V149.1c1.736-1.567,3.218-2.541,5.716-2.541Z" transform="translate(18.078 1.711)" fill="#fff"/>
    <path id="パス_8" data-name="パス 8" d="M192.09,161.3c0,2.921-.636,4.318-1.821,5.5a6.984,6.984,0,0,1-9.357-.127c-1.059-1.1-1.694-2.5-1.694-5.377v-7.157a9.237,9.237,0,0,1,.889-4.658,6.189,6.189,0,0,1,5.546-2.921c2.753,0,6.437,1.44,6.437,6.944Zm-8.554.55c0,1.481.762,2.37,2.117,2.37s2.117-.889,2.117-2.37v-8.639a2.127,2.127,0,1,0-4.235,0Z" transform="translate(20.324 1.711)" fill="#fff"/>
    <path id="パス_9" data-name="パス 9" d="M204.67,161.3c0,2.921-.635,4.318-1.821,5.5a6.984,6.984,0,0,1-9.357-.127c-1.059-1.1-1.694-2.5-1.694-5.377v-7.157a9.238,9.238,0,0,1,.889-4.658,6.19,6.19,0,0,1,5.546-2.921c2.753,0,6.437,1.44,6.437,6.944Zm-8.554.55c0,1.481.762,2.37,2.117,2.37s2.117-.889,2.117-2.37v-8.639a2.127,2.127,0,1,0-4.235,0Z" transform="translate(23.412 1.711)" fill="#fff"/>
    <path id="パス_10" data-name="パス 10" d="M209,139.794v18.038h.085l5.209-9.357h4.319l-5.124,8.722,6.183,12.745h-4.7l-3.9-9.273L209,163.929v6.013h-4.318V139.794Z" transform="translate(26.575 0.05)" fill="#fff"/>
    <path id="パス_11" data-name="パス 11" d="M222.024,139.794v24.179c0,1.354.339,1.989,2.117,2.158V170.2h-.127c-5.209,0-6.31-2.244-6.31-6.224V139.794Z" transform="translate(29.772 0.05)" fill="#fff"/>
    <path id="パス_12" data-name="パス 12" d="M227.344,146.764l2.964,13.38h.085l2.921-13.38h4.446L231.7,171.45c-.551,2.244-1.184,3.429-2.287,4.277a6.089,6.089,0,0,1-4.106,1.184h-.889v-4.064h.72c1.524,0,1.694-.3,2.117-.847.423-.593.847-1.948,1.4-4.743l-5.886-20.493Z" transform="translate(31.016 1.761)" fill="#fff"/>
    <path id="パス_13" data-name="パス 13" d="M249.115,168.281H244.8V153.292a2.132,2.132,0,0,0-2.117-2.414c-1.694,0-2.16,1.228-2.16,2.922v14.481H236.2V146.814h4.318v2.075h.085a4.562,4.562,0,0,1,4.065-2.329c2.668,0,4.446,2.031,4.446,5.08Z" transform="translate(34.313 1.711)" fill="#fff"/>
  </g>
</svg>
